<?xml version="1.0" standalone="no"?>
<!DOCTYPE svg PUBLIC "-//W3C//DTD SVG 20010904//EN"
 "http://www.w3.org/TR/2001/REC-SVG-20010904/DTD/svg10.dtd">
<svg version="1.0" xmlns="http://www.w3.org/2000/svg"
 width="380.000000pt" height="325.000000pt" viewBox="0 0 380.000000 325.000000"
 preserveAspectRatio="xMidYMid meet">
<metadata>
Created by potrace 1.16, written by Peter Selinger 2001-2019
</metadata>
<g transform="translate(0.000000,325.000000) scale(0.100000,-0.100000)"
fill="#3eaf7c" stroke="none">
<path d="M1182 2500 c-63 -39 -62 -29 -62 -679 l0 -590 -107 -3 -108 -3 -3
-37 -3 -38 298 0 299 0 164 55 164 55 129 0 128 0 -120 -100 c-66 -55 -127
-110 -135 -122 -55 -78 -7 -196 89 -214 54 -10 86 3 165 67 l73 60 169 -168
c139 -138 168 -172 166 -193 -2 -18 -10 -26 -27 -28 -19 -3 -51 23 -167 139
l-144 144 -27 -28 -28 -27 123 -123 c126 -127 143 -155 101 -177 -18 -10 -32
0 -130 96 -114 113 -124 117 -153 71 -9 -13 6 -32 77 -105 48 -49 87 -94 87
-99 0 -25 -28 -46 -52 -40 -28 7 -131 119 -142 154 -9 29 -62 73 -87 73 -13 0
-19 7 -19 21 0 27 -62 89 -89 89 -15 0 -21 6 -21 21 0 12 -15 36 -34 55 -26
26 -42 34 -70 34 -28 0 -44 8 -70 34 -36 35 -69 47 -112 38 -37 -7 -140 -106
-154 -147 l-11 -35 -217 -2 -217 -3 -3 -37 -3 -38 110 0 111 0 1 -127 c0 -149
11 -188 58 -220 32 -22 43 -23 227 -23 l194 0 0 40 0 40 -188 0 c-133 0 -192
4 -200 12 -8 8 -12 55 -12 145 l0 133 78 0 c102 0 162 -26 187 -83 13 -29 28
-44 55 -56 26 -11 43 -27 54 -51 18 -41 61 -70 104 -70 21 0 41 -11 66 -36 32
-32 40 -35 84 -33 38 2 56 -2 77 -19 45 -36 137 -22 163 24 7 13 13 14 30 5
11 -6 39 -11 62 -11 35 0 48 6 77 35 25 25 44 35 67 35 39 0 92 32 101 60 5
17 12 20 31 16 33 -9 89 17 110 49 9 14 18 43 19 63 l3 37 63 5 c64 5 92 16
138 51 48 38 51 31 51 -134 0 -106 -4 -157 -12 -165 -8 -8 -67 -12 -200 -12
l-188 0 0 -40 0 -40 193 0 c280 0 287 6 287 260 l0 150 110 0 110 0 0 35 0 35
-172 0 -171 0 -63 -35 c-55 -31 -70 -35 -136 -35 l-73 0 -88 88 c-48 48 -87
90 -87 94 0 3 20 9 44 12 41 6 136 57 136 73 0 4 -10 17 -21 29 l-22 23 -41
-23 c-22 -13 -57 -27 -77 -30 -47 -8 -124 16 -160 50 l-28 27 -72 -59 c-119
-99 -136 -109 -167 -98 -32 11 -50 54 -36 89 5 13 71 76 147 139 197 162 220
166 463 77 l141 -51 239 2 239 3 0 35 0 35 -107 3 -108 3 -1 587 c0 427 -3
596 -12 622 -7 19 -27 44 -46 57 l-34 23 -796 0 c-781 0 -797 0 -829 -20z
m1626 -72 c9 -9 12 -157 12 -605 l0 -593 -95 0 c-90 0 -102 3 -233 52 l-137
52 -261 4 -262 3 -164 -55 -165 -56 -152 0 -151 0 0 593 c0 448 3 596 12 605
17 17 1579 17 1596 0z m-1104 -1654 c27 -26 19 -45 -48 -111 -53 -54 -69 -64
-93 -61 -22 2 -29 9 -31 28 -2 21 11 40 67 93 38 37 74 67 79 67 6 0 18 -7 26
-16z m121 -125 c8 -26 -5 -47 -69 -107 -44 -42 -62 -53 -84 -50 -20 2 -28 9
-30 28 -4 36 124 162 156 153 12 -3 24 -14 27 -24z"/>
<path d="M1750 2295 l0 -35 260 0 260 0 0 35 0 35 -260 0 -260 0 0 -35z"/>
<path d="M1310 2110 l0 -40 700 0 700 0 0 40 0 40 -700 0 -700 0 0 -40z"/>
<path d="M1310 1965 l0 -35 700 0 700 0 0 35 0 35 -700 0 -700 0 0 -35z"/>
<path d="M1310 1815 l0 -35 385 0 385 0 0 35 0 35 -385 0 -385 0 0 -35z"/>
<path d="M1310 1595 l0 -35 220 0 220 0 0 35 0 35 -220 0 -220 0 0 -35z"/>
<path d="M2270 1595 l0 -35 220 0 220 0 0 35 0 35 -220 0 -220 0 0 -35z"/>
</g>
</svg>
