<?xml version="1.0" standalone="no"?>
<!DOCTYPE svg PUBLIC "-//W3C//DTD SVG 20010904//EN"
 "http://www.w3.org/TR/2001/REC-SVG-20010904/DTD/svg10.dtd">
<svg version="1.0" xmlns="http://www.w3.org/2000/svg"
 width="281.000000pt" height="266.000000pt" viewBox="0 0 281.000000 266.000000"
 preserveAspectRatio="xMidYMid meet">
<metadata>
Created by potrace 1.16, written by Peter Selinger 2001-2019
</metadata>
<g transform="translate(0.000000,266.000000) scale(0.100000,-0.100000)"
fill="#3eaf7c" stroke="none">
<path d="M1020 2504 c-81 -17 -134 -37 -230 -85 -128 -64 -155 -89 -201 -184
-50 -105 -94 -140 -189 -148 -28 -2 -140 -76 -140 -93 0 -16 71 -129 114 -179
23 -28 44 -44 52 -41 8 3 38 24 68 46 38 29 55 49 60 72 9 43 73 102 130 118
66 18 155 8 210 -24 60 -35 112 -99 248 -304 l115 -173 62 86 62 85 -73 96
c-190 247 -256 363 -265 462 -5 52 -3 61 21 89 15 17 43 38 64 45 55 19 227
14 370 -12 68 -12 125 -20 128 -17 3 2 -26 23 -63 45 -196 118 -366 155 -543
116z"/>
<path d="M1670 2458 c-41 -16 -77 -32 -79 -34 -3 -3 4 -14 16 -25 l20 -20 62
25 61 26 107 -45 c96 -41 110 -45 135 -34 16 7 25 16 21 20 -5 5 -67 33 -139
63 l-130 53 -74 -29z"/>
<path d="M250 2270 c0 -208 0 -210 20 -198 19 12 20 24 20 171 0 147 1 159 18
153 9 -4 70 -28 135 -53 99 -39 120 -45 128 -33 5 8 8 21 6 28 -2 13 -288 141
-314 142 -10 0 -13 -49 -13 -210z"/>
<path d="M2330 2422 c-123 -53 -135 -61 -138 -86 -4 -33 -6 -34 147 30 57 24
104 44 105 44 1 0 0 -456 -2 -1012 -3 -890 -5 -1014 -18 -1025 -12 -9 -13 -16
-4 -32 13 -25 12 -24 45 -9 l25 11 0 1069 c0 848 -3 1068 -12 1068 -7 0 -74
-26 -148 -58z"/>
<path d="M1999 2310 c-90 -60 -176 -120 -191 -132 -14 -13 -158 -201 -319
-418 -161 -217 -363 -489 -449 -605 -178 -239 -387 -521 -478 -644 -57 -77
-62 -87 -62 -136 0 -90 61 -155 152 -162 41 -3 60 1 85 16 20 12 122 141 251
313 287 386 499 670 717 963 98 132 216 291 262 353 76 101 89 125 124 230 40
118 91 332 79 332 -3 0 -80 -49 -171 -110z m69 -41 l50 -31 -45 -134 c-39
-118 -49 -136 -74 -150 -31 -16 -49 -12 -49 11 0 15 -22 25 -56 25 -25 0 -28
4 -38 53 -6 23 -11 27 -41 27 -22 0 -35 5 -35 13 2 40 33 74 130 142 58 41
106 74 107 74 1 1 24 -13 51 -30z m-1410 -1933 c82 -61 92 -71 79 -84 -24 -24
-97 -26 -137 -4 -62 34 -96 109 -74 166 5 13 9 13 23 3 9 -6 58 -43 109 -81z"/>
<path d="M253 1121 l2 -785 124 -53 c69 -29 127 -51 129 -48 2 2 -8 19 -22 38
-20 26 -48 44 -106 67 l-80 32 -2 732 -3 731 -22 35 -23 35 3 -784z"/>
<path d="M1566 1254 c-36 -48 -66 -91 -66 -97 0 -5 49 -80 108 -166 345 -497
556 -798 570 -814 21 -24 60 -17 123 24 51 32 79 67 79 96 0 10 -48 86 -108
168 -232 323 -322 448 -470 655 -85 118 -158 216 -162 218 -5 2 -38 -36 -74
-84z"/>
<path d="M1555 320 l-189 -79 -90 39 c-172 72 -270 110 -288 110 -33 0 -94
-37 -122 -74 -15 -20 -23 -36 -19 -36 5 0 39 13 77 29 l68 29 180 -74 c99 -41
189 -74 199 -74 10 0 94 32 186 71 92 38 175 71 183 71 8 1 91 -31 185 -70 93
-39 171 -69 173 -67 3 2 -10 22 -27 44 -26 32 -50 47 -144 84 -61 25 -128 52
-147 60 -35 15 -37 15 -225 -63z"/>
</g>
</svg>
